<svg xmlns="http://www.w3.org/2000/svg" viewBox="0 0 320 320" fill="none" stroke="#C68D68" stroke-width="1.8" stroke-linecap="round" stroke-linejoin="round">
  
  <path d="M28 30 C 80 84, 106 128, 128 176 C 143 207, 151 232, 154 258"></path>
  
  <path d="M92 104 C 74 88, 52 82, 32 86"></path>
  
  <path d="M128 176 C 164 156, 198 156, 232 172"></path>
  
  <path d="M118 156 C 132 134, 133 116, 123 98"></path>
  
  <path d="M138 206 C 120 200, 100 202, 84 214"></path>

  
  <g>
    <g transform="translate(32 86) rotate(-58)"><ellipse cx="0" cy="-13" rx="6" ry="13"></ellipse><path d="M0 -25 L0 -2"></path></g>
    <g transform="translate(58 70) rotate(-30)"><ellipse cx="0" cy="-12" rx="5.5" ry="12"></ellipse></g>
    <g transform="translate(70 132) rotate(38)"><ellipse cx="0" cy="-12" rx="5.5" ry="12.5"></ellipse><path d="M0 -23 L0 -2"></path></g>
    <g transform="translate(96 150) rotate(64)"><ellipse cx="0" cy="-11" rx="5" ry="11"></ellipse></g>
    <g transform="translate(86 214) rotate(20)"><ellipse cx="0" cy="-12" rx="5.5" ry="12.5"></ellipse><path d="M0 -23 L0 -2"></path></g>
    <g transform="translate(108 224) rotate(48)"><ellipse cx="0" cy="-10" rx="4.8" ry="10.5"></ellipse></g>
    <g transform="translate(150 250) rotate(8)"><ellipse cx="0" cy="-11" rx="5" ry="11"></ellipse></g>
  </g>

  
  <g transform="translate(234 168)">
    <g><ellipse cx="0" cy="-15" rx="6.5" ry="13"></ellipse></g>
    <g transform="rotate(72)"><ellipse cx="0" cy="-15" rx="6.5" ry="13"></ellipse></g>
    <g transform="rotate(144)"><ellipse cx="0" cy="-15" rx="6.5" ry="13"></ellipse></g>
    <g transform="rotate(216)"><ellipse cx="0" cy="-15" rx="6.5" ry="13"></ellipse></g>
    <g transform="rotate(288)"><ellipse cx="0" cy="-15" rx="6.5" ry="13"></ellipse></g>
    <circle r="4.5"></circle>
  </g>

  
  <g transform="translate(123 92)">
    <g><ellipse cx="0" cy="-11" rx="5" ry="10"></ellipse></g>
    <g transform="rotate(72)"><ellipse cx="0" cy="-11" rx="5" ry="10"></ellipse></g>
    <g transform="rotate(144)"><ellipse cx="0" cy="-11" rx="5" ry="10"></ellipse></g>
    <g transform="rotate(216)"><ellipse cx="0" cy="-11" rx="5" ry="10"></ellipse></g>
    <g transform="rotate(288)"><ellipse cx="0" cy="-11" rx="5" ry="10"></ellipse></g>
    <circle r="3.4"></circle>
  </g>

  
  <g transform="translate(154 258)">
    <ellipse cx="0" cy="6" rx="6.5" ry="9"></ellipse>
    <path d="M-4 10 C -3 2, 3 2, 4 10"></path>
    <path d="M0 14 L0 -2"></path>
  </g>

  
  <circle cx="210" cy="150" r="3.2"></circle>
  <circle cx="222" cy="140" r="3.2"></circle>
</svg>